<svg width="73" height="15" viewBox="0 0 73 15" fill="none" xmlns="http://www.w3.org/2000/svg">
<path d="M0.29 12H7.67V10.68H1.82V7.065H7.325V5.745H1.82V2.445H7.67V1.125H0.29V12ZM9.32422 1.125V7.575C9.32422 10.965 10.6442 12.195 13.6592 12.195C16.8242 12.195 18.0392 10.635 18.0392 7.455V1.125H16.5092V7.575C16.5092 9.72 15.7442 10.875 13.6592 10.875C11.6192 10.875 10.8542 9.87 10.8542 7.74V1.125H9.32422ZM27.0909 12H28.8009L26.2809 7.17C27.6159 6.81 28.4409 5.985 28.4409 4.26C28.4409 1.65 26.5659 1.125 23.9109 1.125H20.4609V12H21.9909V7.425H23.9109C24.1959 7.425 24.4659 7.425 24.7359 7.41L27.0909 12ZM24.0309 2.415C25.6209 2.415 26.8659 2.61 26.8659 4.29C26.8659 5.97 25.6209 6.135 24.0309 6.135H21.9909V2.415H24.0309ZM40.3061 3.795C40.3061 4.515 40.1061 5.09 39.7061 5.52C39.3061 5.94 38.7661 6.22 38.0861 6.36V6.42C38.9461 6.52 39.5861 6.79 40.0061 7.23C40.4261 7.67 40.6361 8.245 40.6361 8.955C40.6361 9.575 40.4911 10.13 40.2011 10.62C39.9111 11.1 39.4611 11.475 38.8511 11.745C38.2511 12.015 37.4761 12.15 36.5261 12.15C35.9661 12.15 35.4461 12.105 34.9661 12.015C34.4861 11.935 34.0261 11.785 33.5861 11.565V10.335C34.0361 10.555 34.5211 10.73 35.0411 10.86C35.5611 10.98 36.0611 11.04 36.5411 11.04C37.5011 11.04 38.1911 10.855 38.6111 10.485C39.0411 10.105 39.2561 9.585 39.2561 8.925C39.2561 8.255 38.9911 7.775 38.4611 7.485C37.9411 7.185 37.2061 7.035 36.2561 7.035H35.2211V5.91H36.2711C37.1511 5.91 37.8161 5.725 38.2661 5.355C38.7261 4.985 38.9561 4.495 38.9561 3.885C38.9561 3.365 38.7811 2.965 38.4311 2.685C38.0811 2.395 37.6061 2.25 37.0061 2.25C36.4261 2.25 35.9311 2.335 35.5211 2.505C35.1111 2.675 34.7061 2.89 34.3061 3.15L33.6461 2.25C34.0261 1.95 34.4961 1.69 35.0561 1.47C35.6261 1.25 36.2711 1.14 36.9911 1.14C38.1111 1.14 38.9411 1.39 39.4811 1.89C40.0311 2.39 40.3061 3.025 40.3061 3.795ZM45.6201 5.43C46.7201 5.43 47.5951 5.705 48.2451 6.255C48.8951 6.805 49.2201 7.58 49.2201 8.58C49.2201 9.69 48.8651 10.565 48.1551 11.205C47.4551 11.835 46.4751 12.15 45.2151 12.15C44.6651 12.15 44.1451 12.1 43.6551 12C43.1751 11.9 42.7701 11.755 42.4401 11.565V10.32C42.8001 10.54 43.2351 10.715 43.7451 10.845C44.2651 10.965 44.7601 11.025 45.2301 11.025C46.0201 11.025 46.6551 10.84 47.1351 10.47C47.6251 10.09 47.8701 9.505 47.8701 8.715C47.8701 8.015 47.6551 7.48 47.2251 7.11C46.7951 6.73 46.1151 6.54 45.1851 6.54C44.9051 6.54 44.5851 6.565 44.2251 6.615C43.8651 6.665 43.5751 6.715 43.3551 6.765L42.6951 6.345L43.1001 1.29H48.4701V2.49H44.2251L43.9701 5.595C44.1401 5.565 44.3701 5.53 44.6601 5.49C44.9501 5.45 45.2701 5.43 45.6201 5.43ZM51.0541 12H51.7891L50.9941 14.085H51.8641L52.7791 12.12V10.275H51.0541V12ZM60.7338 6.555C60.7338 9.585 59.6688 11.055 57.9588 11.055C56.2488 11.055 55.1838 9.585 55.1838 6.555C55.1838 3.54 56.2488 2.07 57.9588 2.07C59.6688 2.07 60.7338 3.54 60.7338 6.555ZM62.1888 6.555C62.1888 3.12 60.8538 0.929999 57.9588 0.929999C55.0638 0.929999 53.7288 3.12 53.7288 6.555C53.7288 10.005 55.0638 12.195 57.9588 12.195C60.8538 12.195 62.1888 10.005 62.1888 6.555ZM70.6508 6.555C70.6508 9.585 69.5858 11.055 67.8758 11.055C66.1658 11.055 65.1008 9.585 65.1008 6.555C65.1008 3.54 66.1658 2.07 67.8758 2.07C69.5858 2.07 70.6508 3.54 70.6508 6.555ZM72.1058 6.555C72.1058 3.12 70.7708 0.929999 67.8758 0.929999C64.9808 0.929999 63.6458 3.12 63.6458 6.555C63.6458 10.005 64.9808 12.195 67.8758 12.195C70.7708 12.195 72.1058 10.005 72.1058 6.555Z" fill="#393939"/>
</svg>
