<svg width="120" height="13" viewBox="0 0 120 13" fill="none" xmlns="http://www.w3.org/2000/svg">
<path d="M5.95456 12.208C9.20256 12.208 10.9146 9.888 10.9146 6.176C10.9146 2.48 9.20256 0.207999 5.95456 0.207999C2.69056 0.207999 0.978563 2.48 0.978563 6.176C0.978563 9.888 2.69056 12.208 5.95456 12.208ZM5.95456 10.256C4.59456 10.256 3.68256 8.992 3.68256 6.176C3.68256 3.392 4.59456 2.16 5.95456 2.16C7.29856 2.16 8.21056 3.392 8.21056 6.176C8.21056 8.992 7.29856 10.256 5.95456 10.256ZM12.2397 7.152C12.2397 6.49067 12.2877 5.84 12.3837 5.2C12.4797 4.56 12.645 3.95733 12.8797 3.392C13.125 2.816 13.461 2.30933 13.8877 1.872C14.325 1.424 14.8744 1.07733 15.5357 0.832C16.2077 0.575999 17.0184 0.447999 17.9677 0.447999C18.1917 0.447999 18.453 0.458666 18.7517 0.48C19.0504 0.490666 19.301 0.517333 19.5037 0.559999V2.496C19.301 2.44267 19.077 2.40533 18.8317 2.384C18.597 2.352 18.3624 2.336 18.1277 2.336C17.1784 2.336 16.4424 2.48533 15.9197 2.784C15.4077 3.08267 15.045 3.504 14.8317 4.048C14.6184 4.58133 14.4957 5.2 14.4637 5.904H14.5597C14.773 5.53067 15.077 5.216 15.4717 4.96C15.877 4.704 16.3997 4.576 17.0397 4.576C18.0424 4.576 18.837 4.89067 19.4237 5.52C20.0104 6.14933 20.3037 7.04 20.3037 8.192C20.3037 9.42933 19.9517 10.4 19.2477 11.104C18.5544 11.808 17.6104 12.16 16.4157 12.16C15.637 12.16 14.933 11.984 14.3037 11.632C13.6744 11.2693 13.173 10.72 12.7997 9.984C12.4264 9.23733 12.2397 8.29333 12.2397 7.152ZM16.3677 10.224C16.837 10.224 17.221 10.064 17.5197 9.744C17.8184 9.41333 17.9677 8.90667 17.9677 8.224C17.9677 7.66933 17.8397 7.232 17.5837 6.912C17.3277 6.592 16.9384 6.432 16.4157 6.432C16.0637 6.432 15.7544 6.512 15.4877 6.672C15.221 6.82133 15.013 7.01867 14.8637 7.264C14.7144 7.50933 14.6397 7.76 14.6397 8.016C14.6397 8.368 14.7037 8.71467 14.8317 9.056C14.9597 9.38667 15.1517 9.664 15.4077 9.888C15.6744 10.112 15.9944 10.224 16.3677 10.224ZM25.4119 0.431999C26.0733 0.431999 26.6759 0.533333 27.2199 0.735999C27.7746 0.938666 28.2173 1.24267 28.5479 1.648C28.8893 2.05333 29.0599 2.56533 29.0599 3.184C29.0599 3.86667 28.8626 4.432 28.4679 4.88C28.0839 5.31733 27.5986 5.68 27.0119 5.968C27.4173 6.18133 27.8013 6.432 28.1639 6.72C28.5373 6.99733 28.8359 7.328 29.0599 7.712C29.2946 8.08533 29.4119 8.528 29.4119 9.04C29.4119 9.66933 29.2413 10.2187 28.8999 10.688C28.5693 11.1573 28.0999 11.52 27.4919 11.776C26.8946 12.032 26.2013 12.16 25.4119 12.16C24.1319 12.16 23.1399 11.888 22.4359 11.344C21.7426 10.8 21.3959 10.0533 21.3959 9.104C21.3959 8.31467 21.6093 7.68 22.0359 7.2C22.4626 6.72 22.9799 6.33067 23.5879 6.032C23.0759 5.712 22.6386 5.328 22.2759 4.88C21.9239 4.42133 21.7479 3.85067 21.7479 3.168C21.7479 2.56 21.9186 2.05333 22.2599 1.648C22.6013 1.24267 23.0493 0.938666 23.6039 0.735999C24.1693 0.533333 24.7719 0.431999 25.4119 0.431999ZM25.3959 2.192C25.0013 2.192 24.6706 2.29333 24.4039 2.496C24.1479 2.69867 24.0199 2.98667 24.0199 3.36C24.0199 3.75467 24.1586 4.07467 24.4359 4.32C24.7133 4.56533 25.0386 4.77867 25.4119 4.96C25.7746 4.78933 26.0946 4.58667 26.3719 4.352C26.6493 4.10667 26.7879 3.776 26.7879 3.36C26.7879 2.98667 26.6546 2.69867 26.3879 2.496C26.1319 2.29333 25.8013 2.192 25.3959 2.192ZM23.6359 8.96C23.6359 9.376 23.7799 9.71733 24.0679 9.984C24.3666 10.2507 24.8039 10.384 25.3799 10.384C25.9773 10.384 26.4253 10.256 26.7239 10C27.0226 9.744 27.1719 9.40267 27.1719 8.976C27.1719 8.688 27.0866 8.43733 26.9159 8.224C26.7453 8 26.5319 7.80267 26.2759 7.632C26.0306 7.45067 25.7746 7.28533 25.5079 7.136L25.2999 7.024C24.8093 7.25867 24.4093 7.53067 24.0999 7.84C23.7906 8.14933 23.6359 8.52267 23.6359 8.96ZM36.3282 8.864V6.64H30.6802V8.864H36.3282ZM41.8234 4.704C42.5168 4.704 43.1354 4.83733 43.6794 5.104C44.2234 5.37067 44.6501 5.76 44.9594 6.272C45.2794 6.784 45.4394 7.41867 45.4394 8.176C45.4394 9.41333 45.0554 10.3893 44.2874 11.104C43.5194 11.808 42.3834 12.16 40.8794 12.16C40.2821 12.16 39.7168 12.1067 39.1834 12C38.6608 11.8933 38.2021 11.7387 37.8074 11.536V9.456C38.2021 9.65867 38.6768 9.83467 39.2314 9.984C39.7861 10.1227 40.3088 10.192 40.7994 10.192C41.5141 10.192 42.0581 10.048 42.4314 9.76C42.8154 9.46133 43.0074 9.00267 43.0074 8.384C43.0074 7.232 42.2448 6.656 40.7194 6.656C40.4208 6.656 40.1114 6.688 39.7914 6.752C39.4714 6.80533 39.2048 6.85867 38.9914 6.912L38.0314 6.4L38.4634 0.575999H44.6554V2.624H40.5754L40.3674 4.864C40.5488 4.832 40.7408 4.8 40.9434 4.768C41.1568 4.72533 41.4501 4.704 41.8234 4.704ZM54.3557 3.136C54.3557 3.92533 54.1157 4.55467 53.6357 5.024C53.1664 5.49333 52.585 5.81333 51.8917 5.984V6.032C52.809 6.13867 53.5024 6.416 53.9717 6.864C54.4517 7.312 54.6917 7.91467 54.6917 8.672C54.6917 9.33333 54.5264 9.93067 54.1957 10.464C53.8757 10.9867 53.3744 11.4027 52.6917 11.712C52.0197 12.0107 51.1504 12.16 50.0837 12.16C48.8464 12.16 47.7477 11.952 46.7877 11.536V9.488C47.2784 9.73333 47.7904 9.92 48.3237 10.048C48.8677 10.176 49.369 10.24 49.8277 10.24C50.6917 10.24 51.2944 10.0907 51.6357 9.792C51.9877 9.49333 52.1637 9.072 52.1637 8.528C52.1637 8.208 52.0837 7.94133 51.9237 7.728C51.7637 7.504 51.481 7.33867 51.0757 7.232C50.681 7.11467 50.1264 7.056 49.4117 7.056H48.5477V5.2H49.4277C50.1317 5.2 50.665 5.136 51.0277 5.008C51.401 4.86933 51.6517 4.688 51.7797 4.464C51.9184 4.22933 51.9877 3.96267 51.9877 3.664C51.9877 3.25867 51.8597 2.944 51.6037 2.72C51.3584 2.48533 50.9424 2.368 50.3557 2.368C49.8117 2.368 49.337 2.464 48.9317 2.656C48.537 2.83733 48.201 3.01867 47.9237 3.2L46.8037 1.536C47.2517 1.216 47.7744 0.949333 48.3717 0.735999C48.9797 0.522666 49.6997 0.415999 50.5317 0.415999C51.705 0.415999 52.633 0.656 53.3157 1.136C54.009 1.60533 54.3557 2.272 54.3557 3.136ZM57.1119 12L61.3999 2.608H55.7679V0.575999H63.9599V2.096L59.6399 12H57.1119ZM70.8282 8.864V6.64H65.1802V8.864H70.8282ZM80.1474 12H72.1634V10.32L75.0274 7.424C75.6034 6.82667 76.0674 6.33067 76.4194 5.936C76.7714 5.53067 77.0274 5.168 77.1874 4.848C77.3474 4.51733 77.4274 4.16533 77.4274 3.792C77.4274 3.33333 77.2994 2.992 77.0434 2.768C76.7981 2.544 76.4621 2.432 76.0354 2.432C75.5981 2.432 75.1714 2.53333 74.7554 2.736C74.3394 2.93867 73.9021 3.22667 73.4434 3.6L72.1314 2.048C72.4621 1.76 72.8088 1.49333 73.1714 1.248C73.5448 1.00267 73.9714 0.805333 74.4514 0.655999C74.9421 0.495999 75.5288 0.415999 76.2114 0.415999C76.9581 0.415999 77.5981 0.554666 78.1314 0.832C78.6754 1.09867 79.0914 1.46667 79.3794 1.936C79.6781 2.39467 79.8274 2.91733 79.8274 3.504C79.8274 4.13333 79.6994 4.70933 79.4434 5.232C79.1981 5.75467 78.8354 6.272 78.3554 6.784C77.8861 7.296 77.3154 7.86133 76.6434 8.48L75.1714 9.856V9.968H80.1474V12ZM86.4077 12.208C89.6557 12.208 91.3677 9.888 91.3677 6.176C91.3677 2.48 89.6557 0.207999 86.4077 0.207999C83.1437 0.207999 81.4317 2.48 81.4317 6.176C81.4317 9.888 83.1437 12.208 86.4077 12.208ZM86.4077 10.256C85.0477 10.256 84.1357 8.992 84.1357 6.176C84.1357 3.392 85.0477 2.16 86.4077 2.16C87.7517 2.16 88.6637 3.392 88.6637 6.176C88.6637 8.992 87.7517 10.256 86.4077 10.256ZM98.4688 8.864V6.64H92.8208V8.864H98.4688ZM104.892 12.208C108.14 12.208 109.852 9.888 109.852 6.176C109.852 2.48 108.14 0.207999 104.892 0.207999C101.628 0.207999 99.9161 2.48 99.9161 6.176C99.9161 9.888 101.628 12.208 104.892 12.208ZM104.892 10.256C103.532 10.256 102.62 8.992 102.62 6.176C102.62 3.392 103.532 2.16 104.892 2.16C106.236 2.16 107.148 3.392 107.148 6.176C107.148 8.992 106.236 10.256 104.892 10.256ZM112.393 12L116.681 2.608H111.049V0.575999H119.241V2.096L114.921 12H112.393Z" fill="#393939"/>
</svg>
