<svg width="120" height="13" viewBox="0 0 120 13" fill="none" xmlns="http://www.w3.org/2000/svg">
<path d="M5.95456 12.208C9.20256 12.208 10.9146 9.888 10.9146 6.176C10.9146 2.48 9.20256 0.207999 5.95456 0.207999C2.69056 0.207999 0.978563 2.48 0.978563 6.176C0.978563 9.888 2.69056 12.208 5.95456 12.208ZM5.95456 10.256C4.59456 10.256 3.68256 8.992 3.68256 6.176C3.68256 3.392 4.59456 2.16 5.95456 2.16C7.29856 2.16 8.21056 3.392 8.21056 6.176C8.21056 8.992 7.29856 10.256 5.95456 10.256ZM20.5597 9.632H19.1837V12H16.8317V9.632H11.9517V7.952L16.9597 0.575999H19.1837V7.76H20.5597V9.632ZM16.8317 5.824C16.8317 5.57867 16.837 5.28 16.8477 4.928C16.8584 4.576 16.869 4.25067 16.8797 3.952C16.901 3.64267 16.917 3.44 16.9277 3.344H16.8637C16.7677 3.55733 16.6664 3.76533 16.5597 3.968C16.453 4.17067 16.325 4.37867 16.1757 4.592L14.0797 7.76H16.8317V5.824ZM29.7159 9.632H28.3399V12H25.9879V9.632H21.1079V7.952L26.1159 0.575999H28.3399V7.76H29.7159V9.632ZM25.9879 5.824C25.9879 5.57867 25.9933 5.28 26.0039 4.928C26.0146 4.576 26.0253 4.25067 26.0359 3.952C26.0573 3.64267 26.0733 3.44 26.0839 3.344H26.0199C25.9239 3.55733 25.8226 3.76533 25.7159 3.968C25.6093 4.17067 25.4813 4.37867 25.3319 4.592L23.2359 7.76H25.9879V5.824ZM36.3282 8.864V6.64H30.6802V8.864H36.3282ZM41.8234 4.704C42.5168 4.704 43.1354 4.83733 43.6794 5.104C44.2234 5.37067 44.6501 5.76 44.9594 6.272C45.2794 6.784 45.4394 7.41867 45.4394 8.176C45.4394 9.41333 45.0554 10.3893 44.2874 11.104C43.5194 11.808 42.3834 12.16 40.8794 12.16C40.2821 12.16 39.7168 12.1067 39.1834 12C38.6608 11.8933 38.2021 11.7387 37.8074 11.536V9.456C38.2021 9.65867 38.6768 9.83467 39.2314 9.984C39.7861 10.1227 40.3088 10.192 40.7994 10.192C41.5141 10.192 42.0581 10.048 42.4314 9.76C42.8154 9.46133 43.0074 9.00267 43.0074 8.384C43.0074 7.232 42.2448 6.656 40.7194 6.656C40.4208 6.656 40.1114 6.688 39.7914 6.752C39.4714 6.80533 39.2048 6.85867 38.9914 6.912L38.0314 6.4L38.4634 0.575999H44.6554V2.624H40.5754L40.3674 4.864C40.5488 4.832 40.7408 4.8 40.9434 4.768C41.1568 4.72533 41.4501 4.704 41.8234 4.704ZM54.3557 3.136C54.3557 3.92533 54.1157 4.55467 53.6357 5.024C53.1664 5.49333 52.585 5.81333 51.8917 5.984V6.032C52.809 6.13867 53.5024 6.416 53.9717 6.864C54.4517 7.312 54.6917 7.91467 54.6917 8.672C54.6917 9.33333 54.5264 9.93067 54.1957 10.464C53.8757 10.9867 53.3744 11.4027 52.6917 11.712C52.0197 12.0107 51.1504 12.16 50.0837 12.16C48.8464 12.16 47.7477 11.952 46.7877 11.536V9.488C47.2784 9.73333 47.7904 9.92 48.3237 10.048C48.8677 10.176 49.369 10.24 49.8277 10.24C50.6917 10.24 51.2944 10.0907 51.6357 9.792C51.9877 9.49333 52.1637 9.072 52.1637 8.528C52.1637 8.208 52.0837 7.94133 51.9237 7.728C51.7637 7.504 51.481 7.33867 51.0757 7.232C50.681 7.11467 50.1264 7.056 49.4117 7.056H48.5477V5.2H49.4277C50.1317 5.2 50.665 5.136 51.0277 5.008C51.401 4.86933 51.6517 4.688 51.7797 4.464C51.9184 4.22933 51.9877 3.96267 51.9877 3.664C51.9877 3.25867 51.8597 2.944 51.6037 2.72C51.3584 2.48533 50.9424 2.368 50.3557 2.368C49.8117 2.368 49.337 2.464 48.9317 2.656C48.537 2.83733 48.201 3.01867 47.9237 3.2L46.8037 1.536C47.2517 1.216 47.7744 0.949333 48.3717 0.735999C48.9797 0.522666 49.6997 0.415999 50.5317 0.415999C51.705 0.415999 52.633 0.656 53.3157 1.136C54.009 1.60533 54.3557 2.272 54.3557 3.136ZM57.1119 12L61.3999 2.608H55.7679V0.575999H63.9599V2.096L59.6399 12H57.1119ZM70.8282 8.864V6.64H65.1802V8.864H70.8282ZM80.1474 12H72.1634V10.32L75.0274 7.424C75.6034 6.82667 76.0674 6.33067 76.4194 5.936C76.7714 5.53067 77.0274 5.168 77.1874 4.848C77.3474 4.51733 77.4274 4.16533 77.4274 3.792C77.4274 3.33333 77.2994 2.992 77.0434 2.768C76.7981 2.544 76.4621 2.432 76.0354 2.432C75.5981 2.432 75.1714 2.53333 74.7554 2.736C74.3394 2.93867 73.9021 3.22667 73.4434 3.6L72.1314 2.048C72.4621 1.76 72.8088 1.49333 73.1714 1.248C73.5448 1.00267 73.9714 0.805333 74.4514 0.655999C74.9421 0.495999 75.5288 0.415999 76.2114 0.415999C76.9581 0.415999 77.5981 0.554666 78.1314 0.832C78.6754 1.09867 79.0914 1.46667 79.3794 1.936C79.6781 2.39467 79.8274 2.91733 79.8274 3.504C79.8274 4.13333 79.6994 4.70933 79.4434 5.232C79.1981 5.75467 78.8354 6.272 78.3554 6.784C77.8861 7.296 77.3154 7.86133 76.6434 8.48L75.1714 9.856V9.968H80.1474V12ZM86.4077 12.208C89.6557 12.208 91.3677 9.888 91.3677 6.176C91.3677 2.48 89.6557 0.207999 86.4077 0.207999C83.1437 0.207999 81.4317 2.48 81.4317 6.176C81.4317 9.888 83.1437 12.208 86.4077 12.208ZM86.4077 10.256C85.0477 10.256 84.1357 8.992 84.1357 6.176C84.1357 3.392 85.0477 2.16 86.4077 2.16C87.7517 2.16 88.6637 3.392 88.6637 6.176C88.6637 8.992 87.7517 10.256 86.4077 10.256ZM98.4688 8.864V6.64H92.8208V8.864H98.4688ZM104.892 12.208C108.14 12.208 109.852 9.888 109.852 6.176C109.852 2.48 108.14 0.207999 104.892 0.207999C101.628 0.207999 99.9161 2.48 99.9161 6.176C99.9161 9.888 101.628 12.208 104.892 12.208ZM104.892 10.256C103.532 10.256 102.62 8.992 102.62 6.176C102.62 3.392 103.532 2.16 104.892 2.16C106.236 2.16 107.148 3.392 107.148 6.176C107.148 8.992 106.236 10.256 104.892 10.256ZM112.393 12L116.681 2.608H111.049V0.575999H119.241V2.096L114.921 12H112.393Z" fill="#393939"/>
</svg>
