<svg width="73" height="15" viewBox="0 0 73 15" fill="none" xmlns="http://www.w3.org/2000/svg">
<path d="M0.125 1.125V7.575C0.125 10.965 1.445 12.195 4.46 12.195C7.625 12.195 8.84 10.635 8.84 7.455V1.125H7.31V7.575C7.31 9.72 6.545 10.875 4.46 10.875C2.42 10.875 1.655 9.87 1.655 7.74V1.125H0.125ZM10.8117 3.9C10.8117 5.715 12.3117 6.54 13.7967 6.87L15.1467 7.155C16.5117 7.455 17.4867 7.935 17.4867 9.075C17.4867 10.14 16.5567 10.905 14.9517 10.905C13.2867 10.905 12.2367 10.125 11.9517 8.625H10.4517C10.7367 10.8 12.3567 12.195 14.9217 12.195C17.0817 12.195 19.0617 11.07 19.0617 8.94C19.0617 6.75 17.0667 6.12 15.4017 5.76L14.1417 5.475C13.1367 5.25 12.3717 4.77 12.3717 3.81C12.3717 2.595 13.8417 2.22 14.6817 2.22C15.7767 2.22 17.0067 2.64 17.3817 3.9H18.8667C18.4467 1.8 16.6917 0.929999 14.7417 0.929999C12.9867 0.929999 10.8117 1.83 10.8117 3.9ZM28.2061 6.555C28.2061 10.26 26.0461 10.71 23.7961 10.71H22.4011V2.415H23.7961C26.0461 2.415 28.2061 2.865 28.2061 6.555ZM20.8711 1.125V12H23.8411C27.2911 12 29.7661 10.71 29.7661 6.555C29.7661 2.415 27.2911 1.125 23.8411 1.125H20.8711ZM41.8977 12H34.8177V10.905L37.6227 8.07C38.1627 7.53 38.6177 7.05 38.9877 6.63C39.3577 6.21 39.6377 5.8 39.8277 5.4C40.0177 4.99 40.1127 4.545 40.1127 4.065C40.1127 3.475 39.9377 3.03 39.5877 2.73C39.2377 2.42 38.7827 2.265 38.2227 2.265C37.7027 2.265 37.2427 2.355 36.8427 2.535C36.4527 2.715 36.0527 2.965 35.6427 3.285L34.9377 2.4C35.3577 2.05 35.8377 1.755 36.3777 1.515C36.9277 1.265 37.5427 1.14 38.2227 1.14C39.2227 1.14 40.0127 1.395 40.5927 1.905C41.1727 2.405 41.4627 3.1 41.4627 3.99C41.4627 4.55 41.3477 5.075 41.1177 5.565C40.8877 6.055 40.5677 6.54 40.1577 7.02C39.7477 7.49 39.2677 7.995 38.7177 8.535L36.4827 10.74V10.8H41.8977V12ZM46.9566 1.14C47.8966 1.14 48.6666 1.36 49.2666 1.8C49.8666 2.24 50.1666 2.875 50.1666 3.705C50.1666 4.135 50.0716 4.51 49.8816 4.83C49.7016 5.15 49.4566 5.435 49.1466 5.685C48.8366 5.925 48.4966 6.14 48.1266 6.33C48.5666 6.54 48.9666 6.78 49.3266 7.05C49.6866 7.31 49.9716 7.615 50.1816 7.965C50.4016 8.315 50.5116 8.735 50.5116 9.225C50.5116 10.125 50.1916 10.84 49.5516 11.37C48.9216 11.89 48.0716 12.15 47.0016 12.15C45.8516 12.15 44.9666 11.9 44.3466 11.4C43.7266 10.89 43.4166 10.18 43.4166 9.27C43.4166 8.78 43.5166 8.355 43.7166 7.995C43.9266 7.635 44.2016 7.325 44.5416 7.065C44.8816 6.805 45.2466 6.585 45.6366 6.405C45.1166 6.105 44.6716 5.745 44.3016 5.325C43.9416 4.895 43.7616 4.35 43.7616 3.69C43.7616 3.14 43.9016 2.68 44.1816 2.31C44.4616 1.93 44.8416 1.64 45.3216 1.44C45.8016 1.24 46.3466 1.14 46.9566 1.14ZM46.9416 2.205C46.3916 2.205 45.9366 2.34 45.5766 2.61C45.2266 2.87 45.0516 3.25 45.0516 3.75C45.0516 4.12 45.1366 4.43 45.3066 4.68C45.4866 4.93 45.7266 5.145 46.0266 5.325C46.3266 5.495 46.6566 5.66 47.0166 5.82C47.5366 5.6 47.9716 5.335 48.3216 5.025C48.6816 4.715 48.8616 4.29 48.8616 3.75C48.8616 3.25 48.6866 2.87 48.3366 2.61C47.9866 2.34 47.5216 2.205 46.9416 2.205ZM44.7066 9.285C44.7066 9.805 44.8916 10.24 45.2616 10.59C45.6316 10.93 46.2016 11.1 46.9716 11.1C47.7016 11.1 48.2566 10.93 48.6366 10.59C49.0266 10.24 49.2216 9.79 49.2216 9.24C49.2216 8.72 49.0166 8.29 48.6066 7.95C48.1966 7.6 47.6516 7.295 46.9716 7.035L46.7316 6.945C46.0716 7.225 45.5666 7.55 45.2166 7.92C44.8766 8.28 44.7066 8.735 44.7066 9.285ZM52.2406 12H52.9756L52.1806 14.085H53.0506L53.9656 12.12V10.275H52.2406V12ZM62.7424 5.865C62.7424 6.635 62.6724 7.395 62.5324 8.145C62.4024 8.885 62.1574 9.56 61.7974 10.17C61.4474 10.77 60.9474 11.25 60.2974 11.61C59.6574 11.97 58.8324 12.15 57.8224 12.15C57.6224 12.15 57.3874 12.135 57.1174 12.105C56.8574 12.085 56.6424 12.05 56.4724 12V10.875C56.8624 11.005 57.3024 11.07 57.7924 11.07C58.4924 11.07 59.0674 10.955 59.5174 10.725C59.9774 10.495 60.3424 10.185 60.6124 9.795C60.8824 9.395 61.0774 8.935 61.1974 8.415C61.3174 7.885 61.3874 7.33 61.4074 6.75H61.3174C61.0974 7.09 60.7774 7.385 60.3574 7.635C59.9474 7.875 59.4174 7.995 58.7674 7.995C57.8474 7.995 57.1024 7.715 56.5324 7.155C55.9724 6.585 55.6924 5.785 55.6924 4.755C55.6924 4.005 55.8324 3.36 56.1124 2.82C56.4024 2.28 56.8024 1.865 57.3124 1.575C57.8224 1.285 58.4224 1.14 59.1124 1.14C59.7924 1.14 60.4074 1.315 60.9574 1.665C61.5074 2.005 61.9424 2.525 62.2624 3.225C62.5824 3.915 62.7424 4.795 62.7424 5.865ZM59.1124 2.25C58.4924 2.25 57.9824 2.455 57.5824 2.865C57.1924 3.275 56.9974 3.9 56.9974 4.74C56.9974 5.43 57.1624 5.975 57.4924 6.375C57.8324 6.765 58.3524 6.96 59.0524 6.96C59.5324 6.96 59.9474 6.865 60.2974 6.675C60.6474 6.475 60.9174 6.225 61.1074 5.925C61.3074 5.625 61.4074 5.315 61.4074 4.995C61.4074 4.565 61.3224 4.14 61.1524 3.72C60.9824 3.3 60.7274 2.95 60.3874 2.67C60.0474 2.39 59.6224 2.25 59.1124 2.25ZM71.2514 6.555C71.2514 9.585 70.1864 11.055 68.4764 11.055C66.7664 11.055 65.7014 9.585 65.7014 6.555C65.7014 3.54 66.7664 2.07 68.4764 2.07C70.1864 2.07 71.2514 3.54 71.2514 6.555ZM72.7064 6.555C72.7064 3.12 71.3714 0.929999 68.4764 0.929999C65.5814 0.929999 64.2464 3.12 64.2464 6.555C64.2464 10.005 65.5814 12.195 68.4764 12.195C71.3714 12.195 72.7064 10.005 72.7064 6.555Z" fill="#393939"/>
</svg>
